<svg width="299" height="74" viewBox="0 0 299 74" fill="none" xmlns="http://www.w3.org/2000/svg">
<path d="M13.1929 10.6856C13.4494 10.5336 13.6129 10.8409 13.7512 11.0027C22.6539 22.0764 31.5671 33.1422 40.469 44.2161C40.6518 44.3738 40.5134 44.7109 40.2666 44.6746C36.0043 44.6794 31.7411 44.6763 27.4786 44.6763C27.1372 44.6803 26.8103 44.5113 26.6008 44.2466C22.1782 38.7528 17.7579 33.2565 13.3353 27.7618C13.1477 27.5398 13.0505 27.2525 13.0627 26.9637C13.0627 21.6557 13.0642 16.3469 13.061 11.0388C13.0635 10.9133 13.0586 10.7508 13.1929 10.6856Z" fill="#FF4655"/>
<path d="M54.5301 10.6602C54.715 10.5914 54.9189 10.7598 54.8917 10.9511C54.8983 16.2987 54.8909 21.6464 54.895 26.994C54.9074 27.297 54.84 27.6105 54.6402 27.8487C53.2749 29.5321 51.9081 31.2147 50.5428 32.8974C50.3151 33.189 49.9428 33.3502 49.5704 33.3316C45.2692 33.3276 40.9671 33.3341 36.6658 33.3283C36.4118 33.3673 36.2672 33.0294 36.4546 32.8666C42.4195 25.5114 48.3893 18.1587 54.3575 10.8053C54.4027 10.7421 54.4602 10.6934 54.5301 10.6602Z" fill="#FF4655"/>
<path d="M66.4205 10.1465C66.6769 9.99449 66.8403 10.3018 66.9787 10.4635C75.8814 21.5373 84.7945 32.6032 93.6964 43.677C93.8796 43.8347 93.7407 44.1718 93.4938 44.1356C89.2315 44.1404 84.9685 44.1371 80.7062 44.1371C80.3647 44.1411 80.0378 43.9723 79.8282 43.7075C75.4056 38.2136 70.9855 32.7174 66.5628 27.2227C66.3751 27.0007 66.278 26.7134 66.2901 26.4246C66.2901 21.1167 66.2918 15.8078 66.2886 10.4997C66.2909 10.3742 66.2861 10.2117 66.4205 10.1465Z" fill="#FF4655"/>
<path d="M58.0754 45.7346C57.9696 45.6748 57.9661 45.5126 58.0655 45.45C60.5408 43.3398 63.0217 41.2361 65.498 39.127C65.6334 39.0018 65.8057 38.91 65.996 38.91C67.3225 38.888 68.6493 38.8672 69.9755 38.8456C70.2018 38.8376 70.4256 38.949 70.566 39.1313C72.2858 41.1537 74.011 43.1723 75.7302 45.1953C75.8498 45.2993 75.7512 45.5004 75.6008 45.4765C69.8048 45.5723 64.0082 45.6649 58.2118 45.7586C58.1644 45.7622 58.1189 45.7543 58.0754 45.7346Z" fill="#FF4655"/>
<path d="M91.3508 9.59151C91.464 9.6603 91.4557 9.83841 91.3415 9.90412C88.4527 12.1457 85.5576 14.38 82.6676 16.6204C82.5089 16.7538 82.3118 16.8494 82.1012 16.8436C80.6321 16.8277 79.1627 16.8105 77.694 16.7942C77.4432 16.796 77.2036 16.667 77.0612 16.4627C75.3029 14.1909 73.5385 11.923 71.7811 9.65047C71.6561 9.5327 71.7796 9.31496 71.9444 9.34572C78.3631 9.4155 84.7825 9.48891 91.2016 9.56111C91.2541 9.55852 91.3045 9.56854 91.3508 9.59151Z" fill="#FF4655"/>
<path d="M109.385 45L100 29.1039H103.466L110.712 41.4675L117.982 29.1039H121.425L112.04 45H109.385ZM125.879 45C125.339 45 124.844 44.8675 124.394 44.6026C123.959 44.3377 123.606 43.9918 123.336 43.5649C123.081 43.1381 122.954 42.6597 122.954 42.1299V37.4052H133.779V35.1312C133.779 34.984 133.726 34.8589 133.621 34.7558C133.516 34.6381 133.389 34.5792 133.239 34.5792H122.954V32.1948H133.306C133.846 32.1948 134.334 32.3273 134.769 32.5922C135.219 32.8424 135.572 33.1883 135.827 33.6299C136.097 34.0714 136.232 34.5498 136.232 35.0649V45H125.879ZM125.947 42.6156H133.779V39.6351H125.384V42.0636C125.384 42.2108 125.437 42.3433 125.542 42.461C125.662 42.5641 125.797 42.6156 125.947 42.6156ZM141.154 45C140.614 45 140.126 44.8675 139.691 44.6026C139.256 44.3377 138.903 43.9918 138.633 43.5649C138.363 43.1381 138.228 42.6597 138.228 42.1299V28H140.659V42.0636C140.659 42.2108 140.711 42.3433 140.816 42.461C140.936 42.5641 141.071 42.6156 141.221 42.6156H143.585V45H141.154ZM148.164 45C147.624 45 147.137 44.8675 146.701 44.6026C146.266 44.3377 145.914 43.9918 145.644 43.5649C145.374 43.1381 145.239 42.6597 145.239 42.1299V35.0649C145.239 34.5351 145.374 34.0567 145.644 33.6299C145.914 33.203 146.266 32.8571 146.701 32.5922C147.137 32.3273 147.624 32.1948 148.164 32.1948H155.591C156.131 32.1948 156.619 32.3273 157.054 32.5922C157.504 32.8424 157.857 33.1883 158.112 33.6299C158.382 34.0714 158.517 34.5498 158.517 35.0649V42.1299C158.517 42.6597 158.382 43.1381 158.112 43.5649C157.857 43.9918 157.504 44.3377 157.054 44.6026C156.619 44.8675 156.131 45 155.591 45H148.164ZM148.232 42.6156H155.524C155.674 42.6156 155.801 42.5641 155.906 42.461C156.011 42.3433 156.064 42.2108 156.064 42.0636V35.1312C156.064 34.984 156.011 34.8589 155.906 34.7558C155.801 34.6381 155.674 34.5792 155.524 34.5792H148.232C148.082 34.5792 147.947 34.6381 147.827 34.7558C147.722 34.8589 147.669 34.984 147.669 35.1312V42.0636C147.669 42.2108 147.722 42.3433 147.827 42.461C147.947 42.5641 148.082 42.6156 148.232 42.6156ZM163.994 45C163.424 45 162.899 44.8602 162.419 44.5805C161.954 44.3009 161.579 43.9329 161.293 43.4766C161.008 43.0056 160.866 42.4905 160.866 41.9312V40.7169H163.837V41.7987C163.837 41.8723 163.859 41.9385 163.904 41.9974C163.964 42.0416 164.032 42.0636 164.107 42.0636H173.806C173.881 42.0636 173.941 42.0416 173.986 41.9974C174.046 41.9385 174.076 41.8723 174.076 41.7987V38.774C174.076 38.7004 174.046 38.6416 173.986 38.5974C173.941 38.5533 173.881 38.5312 173.806 38.5312H163.994C163.424 38.5312 162.899 38.3913 162.419 38.1117C161.954 37.832 161.579 37.4641 161.293 37.0078C161.008 36.5368 160.866 36.0143 160.866 35.4403V32.1727C160.866 31.6134 161.008 31.1056 161.293 30.6494C161.579 30.1784 161.954 29.803 162.419 29.5234C162.899 29.2437 163.424 29.1039 163.994 29.1039H173.941C174.512 29.1039 175.029 29.2437 175.494 29.5234C175.974 29.803 176.357 30.1784 176.642 30.6494C176.927 31.1056 177.07 31.6134 177.07 32.1727V33.387H174.076V32.3052C174.076 32.2316 174.046 32.1727 173.986 32.1286C173.941 32.0697 173.881 32.0403 173.806 32.0403H164.107C164.032 32.0403 163.964 32.0697 163.904 32.1286C163.859 32.1727 163.837 32.2316 163.837 32.3052V35.3299C163.837 35.4035 163.859 35.4623 163.904 35.5065C163.964 35.5507 164.032 35.5727 164.107 35.5727H173.941C174.512 35.5727 175.029 35.7126 175.494 35.9922C175.974 36.2719 176.357 36.6472 176.642 37.1182C176.927 37.5745 177.07 38.0896 177.07 38.6636V41.9312C177.07 42.4905 176.927 43.0056 176.642 43.4766C176.357 43.9329 175.974 44.3009 175.494 44.5805C175.029 44.8602 174.512 45 173.941 45H163.994ZM179.482 45V28H181.912V32.1948H189.834C190.359 32.1948 190.839 32.3273 191.274 32.5922C191.724 32.8571 192.085 33.203 192.355 33.6299C192.625 34.0567 192.76 34.5351 192.76 35.0649V45H190.329V35.1312C190.329 34.984 190.269 34.8589 190.149 34.7558C190.044 34.6381 189.917 34.5792 189.767 34.5792H182.475C182.325 34.5792 182.19 34.6381 182.07 34.7558C181.965 34.8589 181.912 34.984 181.912 35.1312V45H179.482ZM197.373 45C196.832 45 196.345 44.8675 195.91 44.6026C195.475 44.3377 195.122 43.9918 194.852 43.5649C194.582 43.1381 194.447 42.6597 194.447 42.1299V35.0649C194.447 34.5351 194.582 34.0567 194.852 33.6299C195.122 33.203 195.475 32.8571 195.91 32.5922C196.345 32.3273 196.832 32.1948 197.373 32.1948H204.799C205.339 32.1948 205.827 32.3273 206.262 32.5922C206.712 32.8424 207.065 33.1883 207.32 33.6299C207.59 34.0714 207.725 34.5498 207.725 35.0649V42.1299C207.725 42.6597 207.59 43.1381 207.32 43.5649C207.065 43.9918 206.712 44.3377 206.262 44.6026C205.827 44.8675 205.339 45 204.799 45H197.373ZM197.44 42.6156H204.732C204.882 42.6156 205.009 42.5641 205.114 42.461C205.219 42.3433 205.272 42.2108 205.272 42.0636V35.1312C205.272 34.984 205.219 34.8589 205.114 34.7558C205.009 34.6381 204.882 34.5792 204.732 34.5792H197.44C197.29 34.5792 197.155 34.6381 197.035 34.7558C196.93 34.8589 196.877 34.984 196.877 35.1312V42.0636C196.877 42.2108 196.93 42.3433 197.035 42.461C197.155 42.5641 197.29 42.6156 197.44 42.6156ZM213.723 45L208.592 32.1948H211.18L214.714 40.6727L218.472 32.1948H221.24L225.223 40.6948L228.532 32.1948H231.12L226.214 45H224.233L219.867 35.5065L215.704 45H213.723ZM235.203 45C234.663 45 234.168 44.8749 233.718 44.6247C233.283 44.3598 232.93 44.0065 232.66 43.5649C232.405 43.1234 232.278 42.645 232.278 42.1299V35.0649C232.278 34.5351 232.405 34.0567 232.66 33.6299C232.93 33.203 233.283 32.8571 233.718 32.5922C234.168 32.3273 234.663 32.1948 235.203 32.1948H243.125V28H245.556V45H235.203ZM235.293 42.6156H242.585C242.735 42.6156 242.863 42.5641 242.968 42.461C243.073 42.3433 243.125 42.2108 243.125 42.0636V35.1312C243.125 34.984 243.073 34.8589 242.968 34.7558C242.863 34.6381 242.735 34.5792 242.585 34.5792H235.293C235.143 34.5792 235.008 34.6381 234.888 34.7558C234.783 34.8589 234.731 34.984 234.731 35.1312V42.0636C234.731 42.2108 234.783 42.3433 234.888 42.461C235.008 42.5641 235.143 42.6156 235.293 42.6156ZM250.339 45C249.799 45 249.311 44.8675 248.876 44.6026C248.441 44.3377 248.088 43.9918 247.818 43.5649C247.548 43.1381 247.413 42.6597 247.413 42.1299V35.0649C247.413 34.5351 247.548 34.0567 247.818 33.6299C248.088 33.203 248.441 32.8571 248.876 32.5922C249.311 32.3273 249.799 32.1948 250.339 32.1948H257.765C258.305 32.1948 258.793 32.3273 259.228 32.5922C259.678 32.8424 260.03 33.1883 260.285 33.6299C260.556 34.0714 260.691 34.5498 260.691 35.0649V42.1299C260.691 42.6597 260.556 43.1381 260.285 43.5649C260.03 43.9918 259.678 44.3377 259.228 44.6026C258.793 44.8675 258.305 45 257.765 45H250.339ZM250.406 42.6156H257.697C257.847 42.6156 257.975 42.5641 258.08 42.461C258.185 42.3433 258.237 42.2108 258.237 42.0636V35.1312C258.237 34.984 258.185 34.8589 258.08 34.7558C257.975 34.6381 257.847 34.5792 257.697 34.5792H250.406C250.256 34.5792 250.121 34.6381 250.001 34.7558C249.896 34.8589 249.844 34.984 249.844 35.1312V42.0636C249.844 42.2108 249.896 42.3433 250.001 42.461C250.121 42.5641 250.256 42.6156 250.406 42.6156ZM266.69 45L261.559 32.1948H264.147L267.68 40.6727L271.439 32.1948H274.207L278.19 40.6948L281.498 32.1948H284.087L279.18 45H277.2L272.834 35.5065L268.67 45H266.69ZM285.722 45V32.1948H296.074C296.614 32.1948 297.102 32.3273 297.537 32.5922C297.987 32.8571 298.34 33.203 298.595 33.6299C298.865 34.0567 299 34.5351 299 35.0649V45H296.569V35.1312C296.569 34.984 296.509 34.8589 296.389 34.7558C296.284 34.6381 296.157 34.5792 296.007 34.5792H288.715C288.565 34.5792 288.43 34.6381 288.31 34.7558C288.205 34.8589 288.152 34.984 288.152 35.1312V45H285.722Z" fill="#FF4655"/>
</svg>
