<svg width="247" height="145" viewBox="0 0 247 145" fill="none" xmlns="http://www.w3.org/2000/svg">
<g filter="url(#filter0_d_26_412)">
<path d="M51.7612 19.2608C52.2067 18.9965 52.4905 19.5308 52.7308 19.8119C68.1926 39.0632 83.6727 58.3005 99.1331 77.5518C99.4507 77.8259 99.2104 78.4119 98.7818 78.349C91.379 78.3574 83.9748 78.3518 76.5721 78.3518C75.9791 78.3588 75.4113 78.0651 75.0474 77.605C67.3664 68.0541 59.6896 58.4991 52.0085 48.9469C51.6825 48.5609 51.5139 48.0616 51.535 47.5595C51.535 38.3317 51.5378 29.1026 51.5322 19.8748C51.5364 19.6566 51.528 19.3741 51.7612 19.2608Z" fill="#FF4655"/>
</g>
<g filter="url(#filter1_d_26_412)">
<path d="M123.554 19.2168C123.875 19.0971 124.229 19.39 124.182 19.7224C124.193 29.019 124.18 38.3156 124.187 47.6121C124.209 48.1389 124.092 48.6839 123.745 49.098C121.374 52.0245 119 54.9497 116.629 57.8749C116.233 58.3819 115.587 58.6621 114.94 58.6298C107.47 58.6227 99.998 58.634 92.5277 58.6241C92.0866 58.6917 91.8354 58.1044 92.1609 57.8214C102.52 45.0348 112.889 32.2526 123.254 19.4689C123.332 19.359 123.432 19.2745 123.554 19.2168Z" fill="#FF4655"/>
</g>
<g filter="url(#filter2_d_26_412)">
<path d="M144.205 18.324C144.65 18.0597 144.934 18.5939 145.174 18.8751C160.636 38.1264 176.116 57.3637 191.576 76.615C191.894 76.8891 191.654 77.4751 191.225 77.4122C183.822 77.4206 176.418 77.415 169.015 77.415C168.422 77.422 167.855 77.1283 167.491 76.6681C159.81 67.1173 152.133 57.5623 144.452 48.01C144.126 47.624 143.957 47.1248 143.978 46.6227C143.978 37.3949 143.981 28.1658 143.975 18.938C143.98 18.7198 143.971 18.4373 144.205 18.324Z" fill="#FF4655"/>
</g>
<g filter="url(#filter3_d_26_412)">
<path d="M129.711 80.1912C129.527 80.0873 129.521 79.8054 129.694 79.6966C133.993 76.028 138.301 72.3708 142.602 68.7043C142.837 68.4867 143.137 68.3269 143.467 68.3269C145.771 68.2888 148.075 68.2526 150.379 68.215C150.772 68.2012 151.16 68.3949 151.404 68.7118C154.391 72.2276 157.387 75.7368 160.373 79.2537C160.581 79.4345 160.41 79.7841 160.148 79.7426C150.082 79.9092 140.015 80.0701 129.948 80.2328C129.866 80.2392 129.786 80.2255 129.711 80.1912Z" fill="#FF4655"/>
</g>
<g filter="url(#filter4_d_26_412)">
<path d="M187.502 17.3589C187.699 17.4785 187.685 17.7881 187.486 17.9024C182.469 21.7994 177.441 25.6836 172.422 29.5783C172.146 29.8101 171.804 29.9763 171.438 29.9664C168.887 29.9386 166.335 29.9087 163.784 29.8804C163.348 29.8837 162.932 29.6593 162.685 29.3041C159.631 25.3546 156.567 21.4121 153.515 17.4614C153.298 17.2567 153.512 16.8781 153.798 16.9316C164.946 17.0529 176.095 17.1805 187.244 17.3061C187.335 17.3016 187.422 17.319 187.502 17.3589Z" fill="#FF4655"/>
</g>
<g filter="url(#filter5_d_26_412)">
<path d="M43.2431 117.827L34.9031 103.427H37.9831L44.4231 114.627L50.8831 103.427H53.9431L45.6031 117.827H43.2431ZM57.9017 117.827C57.4217 117.827 56.9817 117.707 56.5817 117.467C56.1951 117.227 55.8817 116.913 55.6417 116.527C55.4151 116.14 55.3017 115.707 55.3017 115.227V110.947H64.9217V108.887C64.9217 108.753 64.8751 108.64 64.7817 108.547C64.6884 108.44 64.5751 108.387 64.4417 108.387H55.3017V106.227H64.5017C64.9817 106.227 65.4151 106.347 65.8017 106.587C66.2017 106.813 66.5151 107.127 66.7417 107.527C66.9817 107.927 67.1017 108.36 67.1017 108.827V117.827H57.9017ZM57.9617 115.667H64.9217V112.967H57.4617V115.167C57.4617 115.3 57.5084 115.42 57.6017 115.527C57.7084 115.62 57.8284 115.667 57.9617 115.667ZM71.4759 117.827C70.9959 117.827 70.5626 117.707 70.1759 117.467C69.7893 117.227 69.4759 116.913 69.2359 116.527C68.9959 116.14 68.8759 115.707 68.8759 115.227V102.427H71.0359V115.167C71.0359 115.3 71.0826 115.42 71.1759 115.527C71.2826 115.62 71.4026 115.667 71.5359 115.667H73.6359V117.827H71.4759ZM77.7059 117.827C77.2259 117.827 76.7926 117.707 76.4059 117.467C76.0193 117.227 75.7059 116.913 75.4659 116.527C75.2259 116.14 75.1059 115.707 75.1059 115.227V108.827C75.1059 108.347 75.2259 107.913 75.4659 107.527C75.7059 107.14 76.0193 106.827 76.4059 106.587C76.7926 106.347 77.2259 106.227 77.7059 106.227H84.3059C84.7859 106.227 85.2193 106.347 85.6059 106.587C86.0059 106.813 86.3193 107.127 86.5459 107.527C86.7859 107.927 86.9059 108.36 86.9059 108.827V115.227C86.9059 115.707 86.7859 116.14 86.5459 116.527C86.3193 116.913 86.0059 117.227 85.6059 117.467C85.2193 117.707 84.7859 117.827 84.3059 117.827H77.7059ZM77.7659 115.667H84.2459C84.3793 115.667 84.4926 115.62 84.5859 115.527C84.6793 115.42 84.7259 115.3 84.7259 115.167V108.887C84.7259 108.753 84.6793 108.64 84.5859 108.547C84.4926 108.44 84.3793 108.387 84.2459 108.387H77.7659C77.6326 108.387 77.5126 108.44 77.4059 108.547C77.3126 108.64 77.2659 108.753 77.2659 108.887V115.167C77.2659 115.3 77.3126 115.42 77.4059 115.527C77.5126 115.62 77.6326 115.667 77.7659 115.667ZM91.7736 117.827C91.2669 117.827 90.8003 117.7 90.3736 117.447C89.9603 117.193 89.6269 116.86 89.3736 116.447C89.1203 116.02 88.9936 115.553 88.9936 115.047V113.947H91.6336V114.927C91.6336 114.993 91.6536 115.053 91.6936 115.107C91.7469 115.147 91.8069 115.167 91.8736 115.167H100.494C100.56 115.167 100.614 115.147 100.654 115.107C100.707 115.053 100.734 114.993 100.734 114.927V112.187C100.734 112.12 100.707 112.067 100.654 112.027C100.614 111.987 100.56 111.967 100.494 111.967H91.7736C91.2669 111.967 90.8003 111.84 90.3736 111.587C89.9603 111.333 89.6269 111 89.3736 110.587C89.1203 110.16 88.9936 109.687 88.9936 109.167V106.207C88.9936 105.7 89.1203 105.24 89.3736 104.827C89.6269 104.4 89.9603 104.06 90.3736 103.807C90.8003 103.553 91.2669 103.427 91.7736 103.427H100.614C101.12 103.427 101.58 103.553 101.994 103.807C102.42 104.06 102.76 104.4 103.014 104.827C103.267 105.24 103.394 105.7 103.394 106.207V107.307H100.734V106.327C100.734 106.26 100.707 106.207 100.654 106.167C100.614 106.113 100.56 106.087 100.494 106.087H91.8736C91.8069 106.087 91.7469 106.113 91.6936 106.167C91.6536 106.207 91.6336 106.26 91.6336 106.327V109.067C91.6336 109.133 91.6536 109.187 91.6936 109.227C91.7469 109.267 91.8069 109.287 91.8736 109.287H100.614C101.12 109.287 101.58 109.413 101.994 109.667C102.42 109.92 102.76 110.26 103.014 110.687C103.267 111.1 103.394 111.567 103.394 112.087V115.047C103.394 115.553 103.267 116.02 103.014 116.447C102.76 116.86 102.42 117.193 101.994 117.447C101.58 117.7 101.12 117.827 100.614 117.827H91.7736ZM105.537 117.827V102.427H107.697V106.227H114.737C115.204 106.227 115.63 106.347 116.017 106.587C116.417 106.827 116.737 107.14 116.977 107.527C117.217 107.913 117.337 108.347 117.337 108.827V117.827H115.177V108.887C115.177 108.753 115.124 108.64 115.017 108.547C114.924 108.44 114.81 108.387 114.677 108.387H108.197C108.064 108.387 107.944 108.44 107.837 108.547C107.744 108.64 107.697 108.753 107.697 108.887V117.827H105.537ZM121.436 117.827C120.956 117.827 120.523 117.707 120.136 117.467C119.75 117.227 119.436 116.913 119.196 116.527C118.956 116.14 118.836 115.707 118.836 115.227V108.827C118.836 108.347 118.956 107.913 119.196 107.527C119.436 107.14 119.75 106.827 120.136 106.587C120.523 106.347 120.956 106.227 121.436 106.227H128.036C128.516 106.227 128.95 106.347 129.336 106.587C129.736 106.813 130.05 107.127 130.276 107.527C130.516 107.927 130.636 108.36 130.636 108.827V115.227C130.636 115.707 130.516 116.14 130.276 116.527C130.05 116.913 129.736 117.227 129.336 117.467C128.95 117.707 128.516 117.827 128.036 117.827H121.436ZM121.496 115.667H127.976C128.11 115.667 128.223 115.62 128.316 115.527C128.41 115.42 128.456 115.3 128.456 115.167V108.887C128.456 108.753 128.41 108.64 128.316 108.547C128.223 108.44 128.11 108.387 127.976 108.387H121.496C121.363 108.387 121.243 108.44 121.136 108.547C121.043 108.64 120.996 108.753 120.996 108.887V115.167C120.996 115.3 121.043 115.42 121.136 115.527C121.243 115.62 121.363 115.667 121.496 115.667ZM135.967 117.827L131.407 106.227H133.707L136.847 113.907L140.187 106.227H142.647L146.187 113.927L149.127 106.227H151.427L147.067 117.827H145.307L141.427 109.227L137.727 117.827H135.967ZM155.056 117.827C154.576 117.827 154.136 117.713 153.736 117.487C153.349 117.247 153.036 116.927 152.796 116.527C152.569 116.127 152.456 115.693 152.456 115.227V108.827C152.456 108.347 152.569 107.913 152.796 107.527C153.036 107.14 153.349 106.827 153.736 106.587C154.136 106.347 154.576 106.227 155.056 106.227H162.096V102.427H164.256V117.827H155.056ZM155.136 115.667H161.616C161.749 115.667 161.863 115.62 161.956 115.527C162.049 115.42 162.096 115.3 162.096 115.167V108.887C162.096 108.753 162.049 108.64 161.956 108.547C161.863 108.44 161.749 108.387 161.616 108.387H155.136C155.003 108.387 154.883 108.44 154.776 108.547C154.683 108.64 154.636 108.753 154.636 108.887V115.167C154.636 115.3 154.683 115.42 154.776 115.527C154.883 115.62 155.003 115.667 155.136 115.667ZM168.507 117.827C168.027 117.827 167.593 117.707 167.207 117.467C166.82 117.227 166.507 116.913 166.267 116.527C166.027 116.14 165.907 115.707 165.907 115.227V108.827C165.907 108.347 166.027 107.913 166.267 107.527C166.507 107.14 166.82 106.827 167.207 106.587C167.593 106.347 168.027 106.227 168.507 106.227H175.107C175.587 106.227 176.02 106.347 176.407 106.587C176.807 106.813 177.12 107.127 177.347 107.527C177.587 107.927 177.707 108.36 177.707 108.827V115.227C177.707 115.707 177.587 116.14 177.347 116.527C177.12 116.913 176.807 117.227 176.407 117.467C176.02 117.707 175.587 117.827 175.107 117.827H168.507ZM168.567 115.667H175.047C175.18 115.667 175.293 115.62 175.387 115.527C175.48 115.42 175.527 115.3 175.527 115.167V108.887C175.527 108.753 175.48 108.64 175.387 108.547C175.293 108.44 175.18 108.387 175.047 108.387H168.567C168.433 108.387 168.313 108.44 168.207 108.547C168.113 108.64 168.067 108.753 168.067 108.887V115.167C168.067 115.3 168.113 115.42 168.207 115.527C168.313 115.62 168.433 115.667 168.567 115.667ZM183.037 117.827L178.477 106.227H180.777L183.917 113.907L187.257 106.227H189.717L193.257 113.927L196.197 106.227H198.497L194.137 117.827H192.377L188.497 109.227L184.797 117.827H183.037ZM199.951 117.827V106.227H209.151C209.631 106.227 210.064 106.347 210.451 106.587C210.851 106.827 211.164 107.14 211.391 107.527C211.631 107.913 211.751 108.347 211.751 108.827V117.827H209.591V108.887C209.591 108.753 209.538 108.64 209.431 108.547C209.338 108.44 209.224 108.387 209.091 108.387H202.611C202.478 108.387 202.358 108.44 202.251 108.547C202.158 108.64 202.111 108.753 202.111 108.887V117.827H199.951Z" fill="#FF4655"/>
</g>
<defs>
<filter id="filter0_d_26_412" x="40.8322" y="19.1895" width="69.1466" height="85.8642" filterUnits="userSpaceOnUse" color-interpolation-filters="sRGB">
<feFlood flood-opacity="0" result="BackgroundImageFix"/>
<feColorMatrix in="SourceAlpha" type="matrix" values="0 0 0 0 0 0 0 0 0 0 0 0 0 0 0 0 0 0 127 0" result="hardAlpha"/>
<feOffset dy="16"/>
<feGaussianBlur stdDeviation="5.35"/>
<feComposite in2="hardAlpha" operator="out"/>
<feColorMatrix type="matrix" values="0 0 0 0 0 0 0 0 0 0 0 0 0 0 0 0 0 0 0.25 0"/>
<feBlend mode="normal" in2="BackgroundImageFix" result="effect1_dropShadow_26_412"/>
<feBlend mode="normal" in="SourceGraphic" in2="effect1_dropShadow_26_412" result="shape"/>
</filter>
<filter id="filter1_d_26_412" x="81.3129" y="19.1895" width="53.577" height="66.1428" filterUnits="userSpaceOnUse" color-interpolation-filters="sRGB">
<feFlood flood-opacity="0" result="BackgroundImageFix"/>
<feColorMatrix in="SourceAlpha" type="matrix" values="0 0 0 0 0 0 0 0 0 0 0 0 0 0 0 0 0 0 127 0" result="hardAlpha"/>
<feOffset dy="16"/>
<feGaussianBlur stdDeviation="5.35"/>
<feComposite in2="hardAlpha" operator="out"/>
<feColorMatrix type="matrix" values="0 0 0 0 0 0 0 0 0 0 0 0 0 0 0 0 0 0 0.25 0"/>
<feBlend mode="normal" in2="BackgroundImageFix" result="effect1_dropShadow_26_412"/>
<feBlend mode="normal" in="SourceGraphic" in2="effect1_dropShadow_26_412" result="shape"/>
</filter>
<filter id="filter2_d_26_412" x="133.275" y="18.2526" width="69.1466" height="85.8642" filterUnits="userSpaceOnUse" color-interpolation-filters="sRGB">
<feFlood flood-opacity="0" result="BackgroundImageFix"/>
<feColorMatrix in="SourceAlpha" type="matrix" values="0 0 0 0 0 0 0 0 0 0 0 0 0 0 0 0 0 0 127 0" result="hardAlpha"/>
<feOffset dy="16"/>
<feGaussianBlur stdDeviation="5.35"/>
<feComposite in2="hardAlpha" operator="out"/>
<feColorMatrix type="matrix" values="0 0 0 0 0 0 0 0 0 0 0 0 0 0 0 0 0 0 0.25 0"/>
<feBlend mode="normal" in2="BackgroundImageFix" result="effect1_dropShadow_26_412"/>
<feBlend mode="normal" in="SourceGraphic" in2="effect1_dropShadow_26_412" result="shape"/>
</filter>
<filter id="filter3_d_26_412" x="118.869" y="68.2143" width="52.2971" height="38.72" filterUnits="userSpaceOnUse" color-interpolation-filters="sRGB">
<feFlood flood-opacity="0" result="BackgroundImageFix"/>
<feColorMatrix in="SourceAlpha" type="matrix" values="0 0 0 0 0 0 0 0 0 0 0 0 0 0 0 0 0 0 127 0" result="hardAlpha"/>
<feOffset dy="16"/>
<feGaussianBlur stdDeviation="5.35"/>
<feComposite in2="hardAlpha" operator="out"/>
<feColorMatrix type="matrix" values="0 0 0 0 0 0 0 0 0 0 0 0 0 0 0 0 0 0 0.25 0"/>
<feBlend mode="normal" in2="BackgroundImageFix" result="effect1_dropShadow_26_412"/>
<feBlend mode="normal" in="SourceGraphic" in2="effect1_dropShadow_26_412" result="shape"/>
</filter>
<filter id="filter4_d_26_412" x="142.726" y="16.9265" width="55.6167" height="39.7403" filterUnits="userSpaceOnUse" color-interpolation-filters="sRGB">
<feFlood flood-opacity="0" result="BackgroundImageFix"/>
<feColorMatrix in="SourceAlpha" type="matrix" values="0 0 0 0 0 0 0 0 0 0 0 0 0 0 0 0 0 0 127 0" result="hardAlpha"/>
<feOffset dy="16"/>
<feGaussianBlur stdDeviation="5.35"/>
<feComposite in2="hardAlpha" operator="out"/>
<feColorMatrix type="matrix" values="0 0 0 0 0 0 0 0 0 0 0 0 0 0 0 0 0 0 0.25 0"/>
<feBlend mode="normal" in2="BackgroundImageFix" result="effect1_dropShadow_26_412"/>
<feBlend mode="normal" in="SourceGraphic" in2="effect1_dropShadow_26_412" result="shape"/>
</filter>
<filter id="filter5_d_26_412" x="24.2031" y="102.427" width="198.248" height="42.1" filterUnits="userSpaceOnUse" color-interpolation-filters="sRGB">
<feFlood flood-opacity="0" result="BackgroundImageFix"/>
<feColorMatrix in="SourceAlpha" type="matrix" values="0 0 0 0 0 0 0 0 0 0 0 0 0 0 0 0 0 0 127 0" result="hardAlpha"/>
<feOffset dy="16"/>
<feGaussianBlur stdDeviation="5.35"/>
<feComposite in2="hardAlpha" operator="out"/>
<feColorMatrix type="matrix" values="0 0 0 0 0 0 0 0 0 0 0 0 0 0 0 0 0 0 0.25 0"/>
<feBlend mode="normal" in2="BackgroundImageFix" result="effect1_dropShadow_26_412"/>
<feBlend mode="normal" in="SourceGraphic" in2="effect1_dropShadow_26_412" result="shape"/>
</filter>
</defs>
</svg>
