<svg width="139" height="72" viewBox="0 0 139 72" fill="none" xmlns="http://www.w3.org/2000/svg">
<path d="M20.9662 66.6926L15.9622 58.0526H17.8102L21.6742 64.7726L25.5502 58.0526H27.3862L22.3822 66.6926H20.9662ZM29.7614 66.6926C29.4734 66.6926 29.2094 66.6206 28.9694 66.4766C28.7374 66.3326 28.5494 66.1446 28.4054 65.9126C28.2694 65.6806 28.2014 65.4206 28.2014 65.1326V62.5646H33.9734V61.3286C33.9734 61.2486 33.9454 61.1806 33.8894 61.1246C33.8334 61.0606 33.7654 61.0286 33.6854 61.0286H28.2014V59.7326H33.7214C34.0094 59.7326 34.2694 59.8046 34.5014 59.9486C34.7414 60.0846 34.9294 60.2726 35.0654 60.5126C35.2094 60.7526 35.2814 61.0126 35.2814 61.2926V66.6926H29.7614ZM29.7974 65.3966H33.9734V63.7766H29.4974V65.0966C29.4974 65.1766 29.5254 65.2486 29.5814 65.3126C29.6454 65.3686 29.7174 65.3966 29.7974 65.3966ZM37.9059 66.6926C37.6179 66.6926 37.3579 66.6206 37.1259 66.4766C36.8939 66.3326 36.7059 66.1446 36.5619 65.9126C36.4179 65.6806 36.3459 65.4206 36.3459 65.1326V57.4526H37.6419V65.0966C37.6419 65.1766 37.6699 65.2486 37.7259 65.3126C37.7899 65.3686 37.8619 65.3966 37.9419 65.3966H39.2019V66.6926H37.9059ZM41.6439 66.6926C41.3559 66.6926 41.0959 66.6206 40.8639 66.4766C40.6319 66.3326 40.4439 66.1446 40.2999 65.9126C40.1559 65.6806 40.0839 65.4206 40.0839 65.1326V61.2926C40.0839 61.0046 40.1559 60.7446 40.2999 60.5126C40.4439 60.2806 40.6319 60.0926 40.8639 59.9486C41.0959 59.8046 41.3559 59.7326 41.6439 59.7326H45.6039C45.8919 59.7326 46.1519 59.8046 46.3839 59.9486C46.6239 60.0846 46.8119 60.2726 46.9479 60.5126C47.0919 60.7526 47.1639 61.0126 47.1639 61.2926V65.1326C47.1639 65.4206 47.0919 65.6806 46.9479 65.9126C46.8119 66.1446 46.6239 66.3326 46.3839 66.4766C46.1519 66.6206 45.8919 66.6926 45.6039 66.6926H41.6439ZM41.6799 65.3966H45.5679C45.6479 65.3966 45.7159 65.3686 45.7719 65.3126C45.8279 65.2486 45.8559 65.1766 45.8559 65.0966V61.3286C45.8559 61.2486 45.8279 61.1806 45.7719 61.1246C45.7159 61.0606 45.6479 61.0286 45.5679 61.0286H41.6799C41.5999 61.0286 41.5279 61.0606 41.4639 61.1246C41.4079 61.1806 41.3799 61.2486 41.3799 61.3286V65.0966C41.3799 65.1766 41.4079 65.2486 41.4639 65.3126C41.5279 65.3686 41.5999 65.3966 41.6799 65.3966ZM50.0845 66.6926C49.7805 66.6926 49.5005 66.6166 49.2445 66.4646C48.9965 66.3126 48.7965 66.1126 48.6445 65.8646C48.4925 65.6086 48.4165 65.3286 48.4165 65.0246V64.3646H50.0005V64.9526C50.0005 64.9926 50.0125 65.0286 50.0365 65.0606C50.0685 65.0846 50.1045 65.0966 50.1445 65.0966H55.3165C55.3565 65.0966 55.3885 65.0846 55.4125 65.0606C55.4445 65.0286 55.4605 64.9926 55.4605 64.9526V63.3086C55.4605 63.2686 55.4445 63.2366 55.4125 63.2126C55.3885 63.1886 55.3565 63.1766 55.3165 63.1766H50.0845C49.7805 63.1766 49.5005 63.1006 49.2445 62.9486C48.9965 62.7966 48.7965 62.5966 48.6445 62.3486C48.4925 62.0926 48.4165 61.8086 48.4165 61.4966V59.7206C48.4165 59.4166 48.4925 59.1406 48.6445 58.8926C48.7965 58.6366 48.9965 58.4326 49.2445 58.2806C49.5005 58.1286 49.7805 58.0526 50.0845 58.0526H55.3885C55.6925 58.0526 55.9685 58.1286 56.2165 58.2806C56.4725 58.4326 56.6765 58.6366 56.8285 58.8926C56.9805 59.1406 57.0565 59.4166 57.0565 59.7206V60.3806H55.4605V59.7926C55.4605 59.7526 55.4445 59.7206 55.4125 59.6966C55.3885 59.6646 55.3565 59.6486 55.3165 59.6486H50.1445C50.1045 59.6486 50.0685 59.6646 50.0365 59.6966C50.0125 59.7206 50.0005 59.7526 50.0005 59.7926V61.4366C50.0005 61.4766 50.0125 61.5086 50.0365 61.5326C50.0685 61.5566 50.1045 61.5686 50.1445 61.5686H55.3885C55.6925 61.5686 55.9685 61.6446 56.2165 61.7966C56.4725 61.9486 56.6765 62.1526 56.8285 62.4086C56.9805 62.6566 57.0565 62.9366 57.0565 63.2486V65.0246C57.0565 65.3286 56.9805 65.6086 56.8285 65.8646C56.6765 66.1126 56.4725 66.3126 56.2165 66.4646C55.9685 66.6166 55.6925 66.6926 55.3885 66.6926H50.0845ZM58.3426 66.6926V57.4526H59.6386V59.7326H63.8626C64.1426 59.7326 64.3986 59.8046 64.6306 59.9486C64.8706 60.0926 65.0626 60.2806 65.2066 60.5126C65.3506 60.7446 65.4226 61.0046 65.4226 61.2926V66.6926H64.1266V61.3286C64.1266 61.2486 64.0946 61.1806 64.0306 61.1246C63.9746 61.0606 63.9066 61.0286 63.8266 61.0286H59.9386C59.8586 61.0286 59.7866 61.0606 59.7226 61.1246C59.6666 61.1806 59.6386 61.2486 59.6386 61.3286V66.6926H58.3426ZM67.8822 66.6926C67.5942 66.6926 67.3342 66.6206 67.1022 66.4766C66.8702 66.3326 66.6822 66.1446 66.5382 65.9126C66.3942 65.6806 66.3222 65.4206 66.3222 65.1326V61.2926C66.3222 61.0046 66.3942 60.7446 66.5382 60.5126C66.6822 60.2806 66.8702 60.0926 67.1022 59.9486C67.3342 59.8046 67.5942 59.7326 67.8822 59.7326H71.8422C72.1302 59.7326 72.3902 59.8046 72.6222 59.9486C72.8622 60.0846 73.0502 60.2726 73.1862 60.5126C73.3302 60.7526 73.4022 61.0126 73.4022 61.2926V65.1326C73.4022 65.4206 73.3302 65.6806 73.1862 65.9126C73.0502 66.1446 72.8622 66.3326 72.6222 66.4766C72.3902 66.6206 72.1302 66.6926 71.8422 66.6926H67.8822ZM67.9182 65.3966H71.8062C71.8862 65.3966 71.9542 65.3686 72.0102 65.3126C72.0662 65.2486 72.0942 65.1766 72.0942 65.0966V61.3286C72.0942 61.2486 72.0662 61.1806 72.0102 61.1246C71.9542 61.0606 71.8862 61.0286 71.8062 61.0286H67.9182C67.8382 61.0286 67.7662 61.0606 67.7022 61.1246C67.6462 61.1806 67.6182 61.2486 67.6182 61.3286V65.0966C67.6182 65.1766 67.6462 65.2486 67.7022 65.3126C67.7662 65.3686 67.8382 65.3966 67.9182 65.3966ZM76.6006 66.6926L73.8646 59.7326H75.2446L77.1286 64.3406L79.1326 59.7326H80.6086L82.7326 64.3526L84.4966 59.7326H85.8766L83.2606 66.6926H82.2046L79.8766 61.5326L77.6566 66.6926H76.6006ZM88.054 66.6926C87.766 66.6926 87.502 66.6246 87.262 66.4886C87.03 66.3446 86.842 66.1526 86.698 65.9126C86.562 65.6726 86.494 65.4126 86.494 65.1326V61.2926C86.494 61.0046 86.562 60.7446 86.698 60.5126C86.842 60.2806 87.03 60.0926 87.262 59.9486C87.502 59.8046 87.766 59.7326 88.054 59.7326H92.278V57.4526H93.574V66.6926H88.054ZM88.102 65.3966H91.99C92.07 65.3966 92.138 65.3686 92.194 65.3126C92.25 65.2486 92.278 65.1766 92.278 65.0966V61.3286C92.278 61.2486 92.25 61.1806 92.194 61.1246C92.138 61.0606 92.07 61.0286 91.99 61.0286H88.102C88.022 61.0286 87.95 61.0606 87.886 61.1246C87.83 61.1806 87.802 61.2486 87.802 61.3286V65.0966C87.802 65.1766 87.83 65.2486 87.886 65.3126C87.95 65.3686 88.022 65.3966 88.102 65.3966ZM96.1244 66.6926C95.8364 66.6926 95.5764 66.6206 95.3444 66.4766C95.1124 66.3326 94.9244 66.1446 94.7804 65.9126C94.6364 65.6806 94.5644 65.4206 94.5644 65.1326V61.2926C94.5644 61.0046 94.6364 60.7446 94.7804 60.5126C94.9244 60.2806 95.1124 60.0926 95.3444 59.9486C95.5764 59.8046 95.8364 59.7326 96.1244 59.7326H100.084C100.372 59.7326 100.632 59.8046 100.864 59.9486C101.104 60.0846 101.292 60.2726 101.428 60.5126C101.572 60.7526 101.644 61.0126 101.644 61.2926V65.1326C101.644 65.4206 101.572 65.6806 101.428 65.9126C101.292 66.1446 101.104 66.3326 100.864 66.4766C100.632 66.6206 100.372 66.6926 100.084 66.6926H96.1244ZM96.1604 65.3966H100.048C100.128 65.3966 100.196 65.3686 100.252 65.3126C100.308 65.2486 100.336 65.1766 100.336 65.0966V61.3286C100.336 61.2486 100.308 61.1806 100.252 61.1246C100.196 61.0606 100.128 61.0286 100.048 61.0286H96.1604C96.0804 61.0286 96.0084 61.0606 95.9444 61.1246C95.8884 61.1806 95.8604 61.2486 95.8604 61.3286V65.0966C95.8604 65.1766 95.8884 65.2486 95.9444 65.3126C96.0084 65.3686 96.0804 65.3966 96.1604 65.3966ZM104.843 66.6926L102.107 59.7326H103.487L105.371 64.3406L107.375 59.7326H108.851L110.975 64.3526L112.739 59.7326H114.119L111.503 66.6926H110.447L108.119 61.5326L105.899 66.6926H104.843ZM114.991 66.6926V59.7326H120.511C120.799 59.7326 121.059 59.8046 121.291 59.9486C121.531 60.0926 121.719 60.2806 121.855 60.5126C121.999 60.7446 122.071 61.0046 122.071 61.2926V66.6926H120.775V61.3286C120.775 61.2486 120.743 61.1806 120.679 61.1246C120.623 61.0606 120.555 61.0286 120.475 61.0286H116.587C116.507 61.0286 116.435 61.0606 116.371 61.1246C116.315 61.1806 116.287 61.2486 116.287 61.3286V66.6926H114.991Z" fill="#FF4655"/>
<path d="M27.4044 10.3966C27.6537 10.2487 27.8126 10.5477 27.9471 10.7051C36.6007 21.4796 45.2646 32.2463 53.9175 43.0209C54.0952 43.1743 53.9607 43.5023 53.7208 43.467C49.5777 43.4717 45.4337 43.4686 41.2905 43.4686C40.9586 43.4725 40.6409 43.3081 40.4372 43.0506C36.1383 37.7052 31.8417 32.3575 27.5428 27.0113C27.3604 26.7953 27.266 26.5158 27.2778 26.2348C27.2778 21.0702 27.2793 15.9049 27.2762 10.7403C27.2786 10.6182 27.2738 10.4601 27.4044 10.3966Z" fill="#FF4655"/>
<path d="M67.5852 10.372C67.7649 10.305 67.9631 10.4689 67.9367 10.655C67.9431 15.8581 67.9359 21.0612 67.9399 26.2643C67.9519 26.5591 67.8864 26.8641 67.6922 27.0959C66.3651 28.7338 65.0365 30.3709 63.7094 32.0081C63.4881 32.2919 63.1262 32.4487 62.7642 32.4306C58.5833 32.4267 54.4016 32.433 50.2206 32.4274C49.9737 32.4653 49.8331 32.1366 50.0153 31.9782C55.8133 24.8218 61.6161 17.6678 67.4174 10.5131C67.4613 10.4516 67.5172 10.4043 67.5852 10.372Z" fill="#FF4655"/>
<path d="M79.143 9.87248C79.3923 9.72454 79.5511 10.0235 79.6856 10.1809C88.3393 20.9554 97.0031 31.7222 105.656 42.4967C105.834 42.6501 105.699 42.9781 105.459 42.9429C101.316 42.9476 97.1722 42.9444 93.0291 42.9444C92.6972 42.9483 92.3794 42.784 92.1757 42.5264C87.8768 37.181 83.5803 31.8333 79.2814 26.4871C79.0989 26.2711 79.0045 25.9916 79.0163 25.7106C79.0163 20.5461 79.0179 15.3807 79.0148 10.2161C79.0171 10.094 79.0124 9.93588 79.143 9.87248Z" fill="#FF4655"/>
<path d="M71.0313 44.4984C70.9284 44.4402 70.925 44.2824 71.0216 44.2215C73.4277 42.1683 75.8392 40.1215 78.2462 38.0694C78.3778 37.9476 78.5453 37.8582 78.7303 37.8582C80.0197 37.8368 81.3094 37.8166 82.5985 37.7956C82.8185 37.7878 83.036 37.8962 83.1725 38.0736C84.8442 40.0413 86.5211 42.0053 88.1922 43.9737C88.3085 44.0749 88.2126 44.2705 88.0664 44.2473C82.4326 44.3405 76.7981 44.4306 71.1638 44.5217C71.1178 44.5252 71.0735 44.5176 71.0313 44.4984Z" fill="#FF4655"/>
<path d="M103.376 9.33231C103.486 9.39924 103.478 9.57254 103.367 9.63647C100.559 11.8175 97.7449 13.9914 94.9357 16.1712C94.7814 16.301 94.5898 16.394 94.3851 16.3884C92.9571 16.3729 91.5288 16.3562 90.1012 16.3403C89.8574 16.3421 89.6245 16.2166 89.4861 16.0178C87.777 13.8074 86.062 11.6008 84.3537 9.38968C84.2322 9.27509 84.3523 9.06323 84.5124 9.09316C90.7516 9.16106 96.9914 9.23248 103.231 9.30273C103.282 9.30021 103.331 9.30996 103.376 9.33231Z" fill="#FF4655"/>
</svg>
